<?xml version="1.0" standalone="no"?><!DOCTYPE svg PUBLIC "-//W3C//DTD SVG 1.1//EN" "http://www.w3.org/Graphics/SVG/1.1/DTD/svg11.dtd"><svg t="1695910470325" class="icon" viewBox="0 0 1024 1024" version="1.1" xmlns="http://www.w3.org/2000/svg" p-id="7631" xmlns:xlink="http://www.w3.org/1999/xlink" width="200" height="200"><path d="M813.866667 323.626667L783.616 298.666667a21.333333 21.333333 0 0 1 4.437333-35.712l157.354667-74.666667a21.333333 21.333333 0 0 1 30.165333 22.869333l-30.72 179.2a21.333333 21.333333 0 0 1-34.56 12.885334l-29.738666-24.576a26485.717333 26485.717333 0 0 1-162.389334 181.76c-14.634667 15.573333-35.498667 23.210667-64.128 0.810666-19.072-14.933333-94.848-74.026667-227.370666-177.237333l-205.994667 199.68a40.96 40.96 0 0 1-7.338667 6.954667V768h725.333334a42.666667 42.666667 0 0 1 0 85.333333H213.333333v42.666667a42.666667 42.666667 0 0 1-85.333333 0v-42.666667H85.333333a42.666667 42.666667 0 0 1 0-85.333333h42.666667V128a42.666667 42.666667 0 1 1 85.333333 0v339.413333l181.76-174.506666a42.666667 42.666667 0 0 1 64.085334-0.810667L682.837333 469.333333l130.986667-145.706666z" fill="#000000" p-id="7632"></path></svg>